<svg xmlns="http://www.w3.org/2000/svg" xmlns:xlink="http://www.w3.org/1999/xlink" width="500" zoomAndPan="magnify" viewBox="0 0 375 187.499995" height="250" preserveAspectRatio="xMidYMid meet" version="1.0"><defs><g/><clipPath id="7dc9073614"><path d="M 10.453125 11.753906 L 173.847656 11.753906 L 173.847656 175.152344 L 10.453125 175.152344 Z M 10.453125 11.753906 " clip-rule="nonzero"/></clipPath><clipPath id="6d275de580"><path d="M 48.320312 49.824219 L 151.964844 49.824219 L 151.964844 157.375 L 48.320312 157.375 Z M 48.320312 49.824219 " clip-rule="nonzero"/></clipPath><clipPath id="0aba2d841a"><path d="M 49 49.824219 L 152 49.824219 L 152 157.375 L 49 157.375 Z M 49 49.824219 " clip-rule="nonzero"/></clipPath><clipPath id="19f50dcda2"><path d="M 50 49.824219 L 151 49.824219 L 151 157.375 L 50 157.375 Z M 50 49.824219 " clip-rule="nonzero"/></clipPath><clipPath id="a3ec87f576"><path d="M 51 49.824219 L 150 49.824219 L 150 157.375 L 51 157.375 Z M 51 49.824219 " clip-rule="nonzero"/></clipPath><clipPath id="689c86f643"><path d="M 82 49.824219 L 147 49.824219 L 147 157.375 L 82 157.375 Z M 82 49.824219 " clip-rule="nonzero"/></clipPath><clipPath id="2f8ca13a03"><path d="M 56 49.824219 L 110 49.824219 L 110 157.375 L 56 157.375 Z M 56 49.824219 " clip-rule="nonzero"/></clipPath><clipPath id="332fd1ff90"><path d="M 90 49.824219 L 92 49.824219 L 92 51 L 90 51 Z M 90 49.824219 " clip-rule="nonzero"/></clipPath><clipPath id="b2bc138d59"><path d="M 91 49.824219 L 92 49.824219 L 92 50 L 91 50 Z M 91 49.824219 " clip-rule="nonzero"/></clipPath><clipPath id="0b1e46c820"><path d="M 90 151 L 98 151 L 98 157.375 L 90 157.375 Z M 90 151 " clip-rule="nonzero"/></clipPath><clipPath id="5266b4673e"><path d="M 93.171875 23.6875 L 111.785156 23.6875 L 111.785156 49.882812 L 93.171875 49.882812 Z M 93.171875 23.6875 " clip-rule="nonzero"/></clipPath><clipPath id="30672c8caa"><path d="M 17.304688 157.574219 L 167.601562 157.574219 L 167.601562 170.675781 L 17.304688 170.675781 Z M 17.304688 157.574219 " clip-rule="nonzero"/></clipPath><clipPath id="60bb75caa8"><path d="M 86 154 L 95 154 L 95 163 L 86 163 Z M 86 154 " clip-rule="nonzero"/></clipPath><clipPath id="2682595b01"><path d="M 86.320312 162.03125 L 92.8125 154.890625 L 94.34375 156.28125 L 87.851562 163.421875 Z M 86.320312 162.03125 " clip-rule="nonzero"/></clipPath><clipPath id="30cc266c34"><path d="M 85.601562 162.820312 L 159.359375 81.726562 L 160.890625 83.117188 L 87.132812 164.210938 Z M 85.601562 162.820312 " clip-rule="nonzero"/></clipPath><clipPath id="5454d4752e"><path d="M 12.730469 14.035156 L 171.992188 14.035156 L 171.992188 173 L 12.730469 173 Z M 12.730469 14.035156 " clip-rule="nonzero"/></clipPath><clipPath id="b8393838d0"><path d="M 12.730469 49.191406 L 12.730469 137.808594 C 12.730469 147.132812 16.433594 156.074219 23.027344 162.667969 C 29.621094 169.261719 38.5625 172.964844 47.886719 172.964844 L 136.503906 172.964844 C 145.828125 172.964844 154.773438 169.261719 161.363281 162.667969 C 167.957031 156.074219 171.660156 147.132812 171.660156 137.808594 L 171.660156 49.191406 C 171.660156 39.867188 167.957031 30.925781 161.363281 24.332031 C 154.773438 17.738281 145.828125 14.035156 136.503906 14.035156 L 47.886719 14.035156 C 38.5625 14.035156 29.621094 17.738281 23.027344 24.332031 C 16.433594 30.925781 12.730469 39.867188 12.730469 49.191406 Z M 12.730469 49.191406 " clip-rule="nonzero"/></clipPath><clipPath id="55ae3075ae"><path d="M 13.765625 14.46875 L 170.957031 14.46875 L 170.957031 171.660156 L 13.765625 171.660156 Z M 13.765625 14.46875 " clip-rule="nonzero"/></clipPath><clipPath id="42f92f16fe"><path d="M 13.765625 49.625 L 13.765625 136.175781 C 13.765625 145.5 17.46875 154.441406 24.0625 161.035156 C 30.65625 167.625 39.597656 171.332031 48.921875 171.332031 L 135.472656 171.332031 C 144.792969 171.332031 153.738281 167.625 160.328125 161.035156 C 166.921875 154.441406 170.628906 145.5 170.628906 136.175781 L 170.628906 49.625 C 170.628906 40.300781 166.921875 31.359375 160.328125 24.765625 C 153.738281 18.171875 144.792969 14.46875 135.472656 14.46875 L 48.921875 14.46875 C 39.597656 14.46875 30.65625 18.171875 24.0625 24.765625 C 17.46875 31.359375 13.765625 40.300781 13.765625 49.625 Z M 13.765625 49.625 " clip-rule="nonzero"/></clipPath><clipPath id="195ca19d89"><path d="M 59 134 L 98 134 L 98 172 L 59 172 Z M 59 134 " clip-rule="nonzero"/></clipPath><clipPath id="8d87355de2"><path d="M 84.710938 134.863281 L 97.144531 148.476562 L 72.121094 171.332031 L 59.6875 157.71875 Z M 84.710938 134.863281 " clip-rule="nonzero"/></clipPath><clipPath id="86c71669ee"><path d="M 57 156 L 62 156 L 62 161 L 57 161 Z M 57 156 " clip-rule="nonzero"/></clipPath><clipPath id="5d698e15c4"><path d="M 60.375 156.53125 L 61.492188 157.722656 L 59.003906 160.050781 L 57.886719 158.855469 Z M 60.375 156.53125 " clip-rule="nonzero"/></clipPath><clipPath id="ecefba4f01"><path d="M 54 155 L 57 155 L 57 160 L 54 160 Z M 54 155 " clip-rule="nonzero"/></clipPath><clipPath id="dda1049eb6"><path d="M 54.695312 155.976562 L 56.308594 155.722656 L 56.84375 159.085938 L 55.230469 159.34375 Z M 54.695312 155.976562 " clip-rule="nonzero"/></clipPath><clipPath id="95249fc343"><path d="M 63 134 L 100 134 L 100 173 L 63 173 Z M 63 134 " clip-rule="nonzero"/></clipPath><clipPath id="8e3e40341e"><path d="M 85.578125 134.863281 L 99.476562 146.976562 L 77.21875 172.527344 L 63.316406 160.417969 Z M 85.578125 134.863281 " clip-rule="nonzero"/></clipPath><clipPath id="d840cc6547"><path d="M 89 138 L 124 138 L 124 175 L 89 175 Z M 89 138 " clip-rule="nonzero"/></clipPath><clipPath id="7a62bc4761"><path d="M 109.460938 138.691406 L 123.3125 150.859375 L 102.882812 174.113281 L 89.035156 161.945312 Z M 109.460938 138.691406 " clip-rule="nonzero"/></clipPath><clipPath id="602f370087"><path d="M 101 144 L 127 144 L 127 168 L 101 168 Z M 101 144 " clip-rule="nonzero"/></clipPath><clipPath id="8b494ab325"><path d="M 110.476562 144.457031 L 126.257812 154.410156 L 117.730469 167.933594 L 101.949219 157.980469 Z M 110.476562 144.457031 " clip-rule="nonzero"/></clipPath><clipPath id="b89bff9e5b"><path d="M 123 153 L 132 153 L 132 164 L 123 164 Z M 123 153 " clip-rule="nonzero"/></clipPath><clipPath id="e63f76ca25"><path d="M 129.246094 153.386719 L 131.253906 154.65625 L 125.84375 163.234375 L 123.835938 161.96875 Z M 129.246094 153.386719 " clip-rule="nonzero"/></clipPath></defs><g fill="#2b2b2b" fill-opacity="1"><g transform="translate(187.68857, 149.66058)"><g><path d="M 32.109375 1.125 C 26.585938 1.125 21.582031 0.0507812 17.09375 -2.09375 C 12.613281 -4.25 9.085938 -7.40625 6.515625 -11.5625 C 3.941406 -15.71875 2.65625 -20.742188 2.65625 -26.640625 L 2.65625 -56.78125 L 26.359375 -56.78125 L 26.359375 -28.03125 C 26.359375 -25.882812 26.800781 -24.179688 27.6875 -22.921875 C 28.570312 -21.660156 29.953125 -21.03125 31.828125 -21.03125 C 33.597656 -21.03125 34.925781 -21.613281 35.8125 -22.78125 C 36.707031 -23.945312 37.15625 -25.601562 37.15625 -27.75 L 37.15625 -120.421875 L 61.40625 -120.421875 L 61.40625 -30.140625 C 61.40625 -23.878906 60.164062 -18.390625 57.6875 -13.671875 C 55.207031 -8.953125 51.75 -5.304688 47.3125 -2.734375 C 42.875 -0.160156 37.804688 1.125 32.109375 1.125 Z M 32.109375 1.125 "/></g></g></g><g fill="#2b2b2b" fill-opacity="1"><g transform="translate(249.794052, 149.66058)"><g><path d="M 33.359375 1.125 C 24.578125 1.125 17.546875 -1.628906 12.265625 -7.140625 C 6.984375 -12.660156 4.34375 -20.234375 4.34375 -29.859375 L 4.34375 -85.375 C 4.34375 -97.332031 6.722656 -106.347656 11.484375 -112.421875 C 16.253906 -118.503906 23.734375 -121.546875 33.921875 -121.546875 C 42.804688 -121.546875 49.957031 -119.113281 55.375 -114.25 C 60.789062 -109.394531 63.5 -102.382812 63.5 -93.21875 L 63.5 -72.484375 L 39.53125 -72.484375 L 39.53125 -90.28125 C 39.53125 -93.738281 39.109375 -96.117188 38.265625 -97.421875 C 37.429688 -98.734375 35.984375 -99.390625 33.921875 -99.390625 C 31.773438 -99.390625 30.300781 -98.640625 29.5 -97.140625 C 28.707031 -95.648438 28.3125 -93.457031 28.3125 -90.5625 L 28.3125 -30.140625 C 28.3125 -26.960938 28.78125 -24.648438 29.71875 -23.203125 C 30.65625 -21.753906 32.054688 -21.03125 33.921875 -21.03125 C 37.660156 -21.03125 39.53125 -24.066406 39.53125 -30.140625 L 39.53125 -51.875 L 63.78125 -51.875 L 63.78125 -29.15625 C 63.78125 -8.96875 53.640625 1.125 33.359375 1.125 Z M 33.359375 1.125 "/></g></g></g><g fill="#2b2b2b" fill-opacity="1"><g transform="translate(313.021084, 149.66058)"><g><path d="M 5.328125 0 L 5.328125 -120.421875 L 29.4375 -120.421875 L 29.4375 -20.46875 L 54.25 -20.46875 L 54.25 0 Z M 5.328125 0 "/></g></g></g><g clip-path="url(#7dc9073614)"><path fill="#2b2b2b" d="M 92.191406 175.238281 C 47.03125 175.238281 10.453125 138.402344 10.453125 93.496094 C 10.453125 48.589844 47.03125 11.753906 92.191406 11.753906 C 137.351562 11.753906 173.933594 48.335938 173.933594 93.496094 C 173.933594 138.65625 137.097656 175.238281 92.191406 175.238281 Z M 92.191406 16.800781 C 49.808594 16.800781 15.496094 51.113281 15.496094 93.496094 C 15.496094 135.878906 49.808594 170.191406 92.191406 170.191406 C 134.578125 170.191406 168.886719 135.878906 168.886719 93.496094 C 168.886719 51.113281 134.324219 16.800781 92.191406 16.800781 Z M 92.191406 16.800781 " fill-opacity="1" fill-rule="nonzero"/></g><g clip-path="url(#6d275de580)"><path fill="#060606" d="M 102.253906 49.824219 C 95.214844 49.824219 88.179688 49.824219 81.140625 49.824219 C 78.355469 50.527344 75.1875 51.355469 72.59375 52.238281 C 68.816406 53.492188 65.558594 54.945312 63.660156 56.578125 C 61.480469 58.359375 61.234375 60.339844 62.476562 62.347656 C 63.832031 64.554688 67.042969 66.8125 71.234375 69.09375 C 73.4375 70.296875 76.085938 71.554688 78.148438 72.628906 C 80.945312 74.078125 83.496094 75.28125 85.957031 76.617188 C 91.160156 79.425781 95.773438 82.523438 98.976562 85.992188 C 102.511719 89.84375 104.550781 94.125 103.9375 98.910156 C 103.445312 104.335938 100.003906 110.554688 93.8125 117.554688 C 90.347656 121.558594 86.105469 125.609375 80.972656 130.128906 C 75.402344 135.03125 68.703125 140.535156 60.527344 147.34375 C 56.878906 150.382812 52.773438 153.769531 48.320312 157.496094 C 77.238281 157.496094 106.15625 157.496094 135.074219 157.496094 C 141.378906 146.753906 147.027344 136.40625 149.578125 127.453125 C 152.710938 117.328125 152.878906 108.257812 149.394531 100.375 C 146.660156 93.714844 140.757812 87.90625 133.859375 83.242188 C 127.785156 79.121094 120.589844 75.691406 113.578125 72.832031 C 110.363281 71.519531 106.949219 70.261719 104.453125 69.273438 C 101.351562 68.050781 98.785156 67.117188 96.457031 66.15625 C 92.109375 64.375 88.820312 62.699219 86.976562 61.113281 C 85.257812 59.625 84.6875 58.234375 85.59375 56.933594 C 86.359375 55.707031 88.269531 54.539062 90.90625 53.460938 C 93.414062 52.410156 96.460938 51.539062 100.023438 50.484375 C 100.734375 50.273438 101.488281 50.050781 102.253906 49.824219 " fill-opacity="1" fill-rule="nonzero"/></g><g clip-path="url(#0aba2d841a)"><path fill="#2b2b2b" d="M 61.175781 147.554688 C 69.3125 140.738281 76 135.207031 81.5625 130.285156 C 86.691406 125.75 90.925781 121.675781 94.378906 117.65625 C 100.550781 110.625 103.972656 104.378906 104.4375 98.925781 C 105.023438 94.121094 102.953125 89.820312 99.382812 85.960938 C 96.148438 82.480469 91.507812 79.382812 86.285156 76.574219 C 83.816406 75.238281 81.253906 74.03125 78.460938 72.589844 C 76.386719 71.511719 73.734375 70.257812 71.53125 69.058594 C 67.335938 66.785156 64.121094 64.53125 62.757812 62.335938 C 61.503906 60.332031 61.738281 58.359375 63.902344 56.585938 C 65.789062 54.953125 69.027344 53.503906 72.792969 52.25 C 75.394531 51.363281 78.574219 50.53125 81.375 49.824219 C 88.257812 49.824219 95.140625 49.824219 102.019531 49.824219 C 101.269531 50.046875 100.53125 50.261719 99.832031 50.46875 C 96.273438 51.523438 93.210938 52.394531 90.695312 53.445312 C 88.046875 54.527344 86.125 55.695312 85.347656 56.929688 C 84.429688 58.238281 84.996094 59.632812 86.710938 61.125 C 88.550781 62.71875 91.84375 64.398438 96.191406 66.1875 C 98.515625 67.148438 101.085938 68.085938 104.175781 69.308594 C 106.679688 70.300781 110.082031 71.558594 113.289062 72.875 C 120.28125 75.730469 127.445312 79.15625 133.484375 83.269531 C 140.34375 87.925781 146.191406 93.71875 148.878906 100.355469 C 152.304688 108.210938 152.085938 117.246094 148.898438 127.332031 C 146.28125 136.320312 140.519531 146.703125 134.109375 157.496094 C 105.835938 157.496094 77.558594 157.496094 49.285156 157.496094 C 53.617188 153.859375 57.605469 150.539062 61.175781 147.554688 " fill-opacity="1" fill-rule="nonzero"/></g><g clip-path="url(#19f50dcda2)"><path fill="#2b2b2b" d="M 61.917969 147.796875 C 70.015625 140.96875 76.6875 135.417969 82.242188 130.46875 C 87.363281 125.910156 91.589844 121.8125 95.03125 117.769531 C 101.183594 110.703125 104.578125 104.425781 105.007812 98.945312 C 105.5625 94.113281 103.453125 89.796875 99.84375 85.925781 C 96.578125 82.4375 91.90625 79.332031 86.660156 76.519531 C 84.183594 75.1875 81.609375 73.980469 78.816406 72.542969 C 76.730469 71.464844 74.078125 70.214844 71.871094 69.019531 C 67.671875 66.75 64.453125 64.507812 63.078125 62.320312 C 61.816406 60.324219 62.035156 58.355469 64.183594 56.589844 C 66.050781 54.960938 69.269531 53.515625 73.019531 52.265625 C 75.632812 51.375 78.832031 50.535156 81.644531 49.824219 C 88.347656 49.824219 95.050781 49.824219 101.75 49.824219 C 101.019531 50.039062 100.300781 50.25 99.617188 50.453125 C 96.0625 51.5 92.980469 52.378906 90.457031 53.429688 C 87.792969 54.511719 85.851562 55.6875 85.0625 56.925781 C 84.136719 58.238281 84.691406 59.644531 86.402344 61.140625 C 88.246094 62.742188 91.539062 64.429688 95.886719 66.222656 C 98.210938 67.1875 100.78125 68.128906 103.859375 69.351562 C 106.367188 70.347656 109.761719 71.601562 112.957031 72.917969 C 119.925781 75.777344 127.054688 79.195312 133.058594 83.304688 C 139.867188 87.949219 145.65625 93.726562 148.289062 100.335938 C 151.648438 108.160156 151.363281 117.152344 148.117188 127.195312 C 145.425781 136.21875 139.539062 146.640625 133 157.496094 C 105.464844 157.496094 77.929688 157.496094 50.394531 157.496094 C 54.578125 153.957031 58.445312 150.722656 61.917969 147.796875 " fill-opacity="1" fill-rule="nonzero"/></g><g clip-path="url(#a3ec87f576)"><path fill="#2b2b2b" d="M 81.925781 49.824219 C 79.097656 50.539062 75.878906 51.382812 73.253906 52.28125 C 69.519531 53.527344 66.320312 54.972656 64.46875 56.59375 C 62.34375 58.355469 62.140625 60.316406 63.410156 62.300781 C 64.792969 64.484375 68.019531 66.71875 72.222656 68.980469 C 74.433594 70.171875 77.085938 71.417969 79.183594 72.496094 C 81.972656 73.925781 84.558594 75.132812 87.050781 76.46875 C 92.316406 79.28125 97.023438 82.390625 100.324219 85.886719 C 103.96875 89.769531 106.121094 94.109375 105.597656 98.964844 C 105.207031 104.476562 101.835938 110.789062 95.707031 117.890625 C 92.28125 121.953125 88.054688 126.074219 82.949219 130.65625 C 77.402344 135.632812 70.746094 141.207031 62.691406 148.046875 C 59.320312 150.910156 55.574219 154.0625 51.542969 157.496094 C 78.3125 157.496094 105.082031 157.496094 131.851562 157.496094 C 138.523438 146.578125 144.539062 136.117188 147.316406 127.050781 C 150.621094 117.058594 150.964844 108.105469 147.675781 100.316406 C 145.101562 93.730469 139.371094 87.976562 132.613281 83.339844 C 126.652344 79.238281 119.558594 75.820312 112.613281 72.964844 C 109.425781 71.648438 106.046875 70.394531 103.53125 69.390625 C 100.46875 68.171875 97.894531 67.226562 95.570312 66.261719 C 91.21875 64.460938 87.925781 62.765625 86.089844 61.15625 C 84.382812 59.652344 83.828125 58.242188 84.773438 56.921875 C 85.570312 55.675781 87.527344 54.5 90.207031 53.410156 C 92.742188 52.359375 95.839844 51.480469 99.394531 50.433594 C 100.058594 50.238281 100.761719 50.035156 101.472656 49.824219 C 94.957031 49.824219 88.4375 49.824219 81.925781 49.824219 " fill-opacity="1" fill-rule="nonzero"/></g><g clip-path="url(#689c86f643)"><path fill="#ffffff" d="M 97.925781 50.316406 C 98.480469 50.15625 99.054688 49.992188 99.636719 49.824219 C 99.824219 49.824219 100.007812 49.824219 100.195312 49.824219 C 99.578125 50.003906 98.964844 50.179688 98.371094 50.351562 C 94.835938 51.382812 91.65625 52.277344 89.066406 53.335938 C 86.324219 54.433594 84.292969 55.628906 83.4375 56.898438 C 82.429688 58.25 82.949219 59.695312 84.640625 61.230469 C 86.464844 62.875 89.769531 64.601562 94.117188 66.429688 C 96.4375 67.410156 99.023438 68.371094 102.023438 69.585938 C 104.5625 70.613281 107.890625 71.863281 111.035156 73.183594 C 117.871094 76.039062 124.800781 79.4375 130.574219 83.5 C 137.113281 88.089844 142.570312 93.753906 144.886719 100.226562 C 147.863281 107.859375 147.238281 116.625 143.664062 126.402344 C 140.515625 135.640625 133.90625 146.285156 126.613281 157.496094 C 125.847656 157.496094 125.078125 157.496094 124.3125 157.496094 C 131.886719 146.148438 138.757812 135.425781 142.074219 126.121094 C 145.761719 116.433594 146.507812 107.75 143.664062 100.1875 C 141.453125 93.765625 136.117188 88.140625 129.675781 83.570312 C 123.984375 79.523438 117.125 76.132812 110.335938 73.277344 C 107.210938 71.960938 103.90625 70.707031 101.355469 69.667969 C 98.386719 68.460938 95.796875 67.492188 93.476562 66.503906 C 89.128906 64.664062 85.820312 62.921875 84.003906 61.261719 C 82.316406 59.710938 81.8125 58.253906 82.851562 56.890625 C 83.734375 55.609375 85.796875 54.40625 88.570312 53.304688 C 91.183594 52.242188 94.394531 51.339844 97.925781 50.316406 " fill-opacity="1" fill-rule="nonzero"/></g><g clip-path="url(#2f8ca13a03)"><path fill="#ffffff" d="M 66.257812 149.207031 C 74.121094 142.316406 80.707031 136.628906 86.207031 131.527344 C 91.265625 126.835938 95.460938 122.597656 98.816406 118.445312 C 104.839844 111.175781 108.082031 104.707031 108.304688 99.050781 C 108.679688 94.085938 106.335938 89.648438 102.507812 85.714844 C 99.046875 82.175781 94.191406 79.042969 88.8125 76.226562 C 86.277344 74.890625 83.640625 73.683594 80.859375 72.28125 C 78.699219 71.191406 76.046875 69.96875 73.824219 68.792969 C 69.597656 66.566406 66.359375 64.367188 64.925781 62.226562 C 63.613281 60.273438 63.75 58.347656 65.785156 56.613281 C 67.554688 55.015625 70.667969 53.589844 74.332031 52.351562 C 77.011719 51.425781 80.308594 50.558594 83.199219 49.824219 C 83.386719 49.824219 83.570312 49.824219 83.757812 49.824219 C 80.839844 50.570312 77.507812 51.445312 74.804688 52.382812 C 71.175781 53.617188 68.101562 55.039062 66.363281 56.625 C 64.367188 58.34375 64.257812 60.253906 65.589844 62.191406 C 67.039062 64.316406 70.289062 66.496094 74.523438 68.710938 C 76.75 69.878906 79.402344 71.09375 81.589844 72.191406 C 84.367188 73.574219 87.027344 74.789062 89.582031 76.121094 C 95.007812 78.9375 99.929688 82.082031 103.460938 85.636719 C 107.371094 89.597656 109.800781 94.074219 109.496094 99.089844 C 109.355469 104.804688 106.160156 111.34375 100.195312 118.6875 C 96.867188 122.882812 92.6875 127.175781 87.652344 131.914062 C 82.171875 137.070312 75.621094 142.8125 67.84375 149.726562 C 65.125 152.140625 62.195312 154.726562 59.082031 157.496094 C 58.3125 157.496094 57.546875 157.496094 56.78125 157.496094 C 60.164062 154.527344 63.34375 151.765625 66.257812 149.207031 " fill-opacity="1" fill-rule="nonzero"/></g><path fill="#ffffff" d="M 121.558594 118.804688 C 122.039062 118.878906 122.519531 118.957031 123.003906 119.035156 C 122.488281 120.148438 121.835938 121.269531 121.148438 122.40625 C 120.457031 123.574219 119.785156 124.769531 118.945312 125.964844 C 118.441406 125.867188 117.9375 125.765625 117.433594 125.667969 C 118.289062 124.484375 118.96875 123.296875 119.671875 122.144531 C 120.367188 121.015625 121.027344 119.910156 121.558594 118.804688 " fill-opacity="1" fill-rule="nonzero"/><path fill="#ffffff" d="M 127.390625 103.671875 C 127.492188 105.386719 127.066406 107.132812 126.808594 108.957031 C 126.359375 108.914062 125.914062 108.875 125.46875 108.832031 C 125.753906 107.023438 126.203125 105.292969 126.125 103.59375 C 126.546875 103.617188 126.96875 103.644531 127.390625 103.671875 " fill-opacity="1" fill-rule="nonzero"/><path fill="#ffffff" d="M 126.289062 110.835938 C 125.839844 112.800781 124.925781 114.796875 124.070312 116.882812 C 123.59375 116.8125 123.121094 116.742188 122.644531 116.675781 C 123.523438 114.609375 124.460938 112.636719 124.933594 110.691406 C 125.382812 110.742188 125.835938 110.789062 126.289062 110.835938 " fill-opacity="1" fill-rule="nonzero"/><path fill="#ffffff" d="M 117.277344 128.449219 C 115.441406 131.027344 113.445312 133.707031 111.183594 136.46875 C 110.652344 136.335938 110.125 136.195312 109.59375 136.058594 C 111.878906 133.324219 113.894531 130.675781 115.75 128.125 C 116.257812 128.234375 116.769531 128.339844 117.277344 128.449219 " fill-opacity="1" fill-rule="nonzero"/><path fill="#ffffff" d="M 108.796875 139.359375 C 106.269531 142.382812 103.484375 145.515625 100.542969 148.796875 C 99.980469 148.617188 99.421875 148.441406 98.863281 148.265625 C 101.835938 145.011719 104.640625 141.910156 107.1875 138.917969 C 107.722656 139.0625 108.257812 139.210938 108.796875 139.359375 " fill-opacity="1" fill-rule="nonzero"/><path fill="#ffffff" d="M 125.375 97.386719 C 125.765625 97.390625 126.15625 97.398438 126.542969 97.402344 C 126.839844 98.144531 126.976562 98.894531 127.074219 99.65625 C 127.171875 100.429688 127.375 101.226562 127.390625 102.027344 C 126.976562 102.007812 126.5625 101.984375 126.148438 101.964844 C 126.144531 101.171875 125.953125 100.382812 125.867188 99.617188 C 125.78125 98.859375 125.65625 98.117188 125.375 97.386719 " fill-opacity="1" fill-rule="nonzero"/><path fill="#ffffff" d="M 79.988281 53.582031 C 79.308594 53.886719 78.582031 54.195312 78.011719 54.515625 C 77.835938 54.507812 77.65625 54.5 77.480469 54.492188 C 78.0625 54.167969 78.796875 53.859375 79.484375 53.554688 C 79.652344 53.5625 79.820312 53.574219 79.988281 53.582031 " fill-opacity="1" fill-rule="nonzero"/><path fill="#ffffff" d="M 82.542969 52.402344 C 82.703125 52.414062 82.859375 52.425781 83.019531 52.4375 C 82.601562 52.570312 82.230469 52.714844 81.84375 52.855469 C 81.453125 52.996094 81.066406 53.140625 80.71875 53.289062 C 80.554688 53.277344 80.386719 53.265625 80.222656 53.257812 C 80.574219 53.109375 80.964844 52.964844 81.359375 52.820312 C 81.746094 52.679688 82.121094 52.539062 82.542969 52.402344 " fill-opacity="1" fill-rule="nonzero"/><path fill="#ffffff" d="M 86.335938 51.386719 C 85.472656 51.640625 84.640625 51.898438 83.820312 52.164062 C 83.667969 52.152344 83.507812 52.140625 83.351562 52.128906 C 84.179688 51.863281 85.015625 51.605469 85.886719 51.351562 C 86.039062 51.363281 86.1875 51.375 86.335938 51.386719 " fill-opacity="1" fill-rule="nonzero"/><path fill="#ffffff" d="M 122.949219 91.964844 C 123.308594 91.953125 123.664062 91.949219 124.023438 91.9375 C 124.800781 93.230469 125.566406 94.578125 126.066406 95.964844 C 125.683594 95.964844 125.300781 95.960938 124.917969 95.957031 C 124.445312 94.582031 123.703125 93.25 122.949219 91.964844 " fill-opacity="1" fill-rule="nonzero"/><path fill="#ffffff" d="M 77.394531 54.839844 C 76.871094 55.171875 76.257812 55.507812 75.859375 55.859375 C 75.671875 55.855469 75.484375 55.847656 75.296875 55.84375 C 75.703125 55.492188 76.324219 55.152344 76.859375 54.816406 C 77.039062 54.824219 77.21875 54.832031 77.394531 54.839844 " fill-opacity="1" fill-rule="nonzero"/><path fill="#ffffff" d="M 74.839844 56.199219 C 75.027344 56.207031 75.21875 56.210938 75.410156 56.214844 C 75.191406 56.394531 75.054688 56.578125 74.871094 56.761719 C 74.6875 56.945312 74.519531 57.132812 74.433594 57.324219 C 74.234375 57.324219 74.039062 57.320312 73.839844 57.320312 C 73.929688 57.128906 74.101562 56.9375 74.289062 56.75 C 74.476562 56.566406 74.613281 56.382812 74.839844 56.199219 " fill-opacity="1" fill-rule="nonzero"/><g clip-path="url(#332fd1ff90)"><path fill="#ffffff" d="M 90.660156 50.1875 C 90.515625 50.175781 90.371094 50.164062 90.230469 50.148438 C 90.628906 50.042969 91.023438 49.933594 91.417969 49.824219 C 91.511719 49.824219 91.605469 49.824219 91.699219 49.824219 C 91.769531 49.828125 91.84375 49.835938 91.914062 49.839844 C 91.5 49.957031 91.082031 50.070312 90.660156 50.1875 " fill-opacity="1" fill-rule="nonzero"/></g><path fill="#ffffff" d="M 74.207031 57.710938 C 73.996094 58.101562 73.9375 58.5 73.902344 58.90625 C 73.695312 58.910156 73.488281 58.914062 73.28125 58.914062 C 73.324219 58.507812 73.386719 58.101562 73.605469 57.707031 C 73.804688 57.707031 74.007812 57.707031 74.207031 57.710938 " fill-opacity="1" fill-rule="nonzero"/><path fill="#ffffff" d="M 89.800781 50.417969 C 88.925781 50.652344 88.050781 50.894531 87.195312 51.136719 C 87.046875 51.125 86.898438 51.113281 86.75 51.101562 C 87.609375 50.855469 88.492188 50.617188 89.367188 50.382812 C 89.511719 50.394531 89.65625 50.40625 89.800781 50.417969 " fill-opacity="1" fill-rule="nonzero"/><path fill="#ffffff" d="M 114.039062 82.136719 C 113.746094 82.164062 113.453125 82.191406 113.160156 82.222656 C 111.933594 81.304688 110.5 80.4375 109.136719 79.59375 C 109.414062 79.5625 109.6875 79.53125 109.960938 79.5 C 111.34375 80.347656 112.789062 81.21875 114.039062 82.136719 " fill-opacity="1" fill-rule="nonzero"/><path fill="#ffffff" d="M 108.546875 78.679688 C 108.277344 78.710938 108.007812 78.742188 107.742188 78.773438 C 106.347656 77.980469 104.941406 77.210938 103.460938 76.476562 C 103.714844 76.441406 103.96875 76.410156 104.222656 76.375 C 105.71875 77.113281 107.140625 77.886719 108.546875 78.679688 " fill-opacity="1" fill-rule="nonzero"/><path fill="#ffffff" d="M 98.375 73.621094 C 99.101562 73.949219 99.832031 74.28125 100.574219 74.617188 C 101.296875 74.957031 102.03125 75.304688 102.773438 75.65625 C 102.519531 75.6875 102.273438 75.722656 102.019531 75.753906 C 101.285156 75.40625 100.558594 75.058594 99.839844 74.714844 C 99.105469 74.382812 98.378906 74.050781 97.660156 73.722656 C 97.898438 73.6875 98.136719 73.65625 98.375 73.621094 " fill-opacity="1" fill-rule="nonzero"/><path fill="#ffffff" d="M 114.46875 83.15625 C 114.769531 83.128906 115.066406 83.101562 115.363281 83.074219 C 116.011719 83.558594 116.59375 84.054688 117.226562 84.550781 C 117.890625 85.058594 118.445312 85.578125 119.003906 86.109375 C 118.683594 86.128906 118.367188 86.152344 118.046875 86.175781 C 117.496094 85.648438 116.953125 85.128906 116.300781 84.625 C 115.679688 84.128906 115.105469 83.636719 114.46875 83.15625 " fill-opacity="1" fill-rule="nonzero"/><path fill="#ffffff" d="M 123.136719 90.6875 C 122.789062 90.699219 122.4375 90.710938 122.089844 90.722656 C 121.347656 89.519531 120.15625 88.371094 119.183594 87.25 C 119.511719 87.230469 119.835938 87.210938 120.164062 87.191406 C 121.160156 88.316406 122.371094 89.476562 123.136719 90.6875 " fill-opacity="1" fill-rule="nonzero"/><path fill="#ffffff" d="M 92.707031 71.152344 C 94.054688 71.75 95.492188 72.355469 96.921875 72.980469 C 96.683594 73.015625 96.449219 73.046875 96.210938 73.082031 C 94.789062 72.453125 93.363281 71.847656 92.011719 71.242188 C 92.242188 71.210938 92.476562 71.183594 92.707031 71.152344 " fill-opacity="1" fill-rule="nonzero"/><path fill="#ffffff" d="M 78.40625 64.277344 C 78.183594 64.292969 77.960938 64.3125 77.742188 64.328125 C 77.027344 63.847656 76.304688 63.371094 75.777344 62.894531 C 75.996094 62.878906 76.214844 62.867188 76.433594 62.851562 C 76.964844 63.324219 77.691406 63.796875 78.40625 64.277344 " fill-opacity="1" fill-rule="nonzero"/><path fill="#ffffff" d="M 91.386719 70.5625 C 91.15625 70.59375 90.925781 70.625 90.695312 70.652344 C 89.410156 70.078125 88.089844 69.519531 86.835938 68.964844 C 87.0625 68.9375 87.285156 68.90625 87.507812 68.878906 C 88.765625 69.429688 90.085938 69.984375 91.386719 70.5625 " fill-opacity="1" fill-rule="nonzero"/><path fill="#ffffff" d="M 74.035156 61.0625 C 74.25 61.054688 74.464844 61.042969 74.679688 61.035156 C 74.828125 61.257812 74.980469 61.484375 75.214844 61.707031 C 75.4375 61.929688 75.632812 62.160156 75.882812 62.390625 C 75.664062 62.402344 75.445312 62.414062 75.226562 62.429688 C 74.980469 62.199219 74.785156 61.96875 74.5625 61.738281 C 74.328125 61.515625 74.179688 61.289062 74.035156 61.0625 " fill-opacity="1" fill-rule="nonzero"/><path fill="#ffffff" d="M 74.375 60.597656 C 74.164062 60.605469 73.949219 60.613281 73.734375 60.621094 C 73.566406 60.183594 73.292969 59.757812 73.3125 59.332031 C 73.523438 59.328125 73.730469 59.324219 73.941406 59.320312 C 73.925781 59.742188 74.203125 60.164062 74.375 60.597656 " fill-opacity="1" fill-rule="nonzero"/><path fill="#ffffff" d="M 82.90625 66.765625 C 83.441406 67.023438 83.984375 67.285156 84.535156 67.546875 C 85.109375 67.808594 85.695312 68.070312 86.28125 68.339844 C 86.058594 68.367188 85.835938 68.394531 85.613281 68.421875 C 85.023438 68.152344 84.441406 67.886719 83.863281 67.625 C 83.316406 67.359375 82.773438 67.097656 82.238281 66.839844 C 82.460938 66.816406 82.683594 66.792969 82.90625 66.765625 " fill-opacity="1" fill-rule="nonzero"/><path fill="#ffffff" d="M 81.894531 66.257812 C 81.675781 66.277344 81.453125 66.300781 81.226562 66.324219 C 80.234375 65.820312 79.351562 65.316406 78.527344 64.820312 C 78.746094 64.800781 78.96875 64.78125 79.191406 64.761719 C 80.015625 65.253906 80.898438 65.757812 81.894531 66.257812 " fill-opacity="1" fill-rule="nonzero"/><g clip-path="url(#b2bc138d59)"><path fill="#ffffff" d="M 91.699219 49.824219 C 91.789062 49.824219 91.882812 49.824219 91.976562 49.824219 C 91.957031 49.828125 91.933594 49.835938 91.914062 49.839844 C 91.84375 49.835938 91.769531 49.828125 91.699219 49.824219 " fill-opacity="1" fill-rule="nonzero"/></g><g clip-path="url(#0b1e46c820)"><path fill="#ffffff" d="M 97.453125 152.246094 C 96.878906 152.058594 96.308594 151.875 95.742188 151.6875 C 94.140625 153.480469 92.5 155.316406 90.808594 157.203125 C 90.722656 157.304688 90.636719 157.398438 90.546875 157.496094 C 91.3125 157.496094 92.078125 157.496094 92.84375 157.496094 C 94.421875 155.703125 95.957031 153.953125 97.453125 152.246094 " fill-opacity="1" fill-rule="nonzero"/></g><g clip-path="url(#5266b4673e)"><path fill="#2b2b2b" d="M 102.414062 23.6875 C 97.308594 23.6875 93.171875 27.828125 93.171875 32.933594 C 93.171875 39.863281 102.414062 50.097656 102.414062 50.097656 C 102.414062 50.097656 111.65625 39.863281 111.65625 32.933594 C 111.65625 27.828125 107.515625 23.6875 102.414062 23.6875 Z M 102.414062 36.234375 C 100.589844 36.234375 99.113281 34.753906 99.113281 32.933594 C 99.113281 31.109375 100.589844 29.628906 102.414062 29.628906 C 104.234375 29.628906 105.714844 31.109375 105.714844 32.933594 C 105.714844 34.753906 104.234375 36.234375 102.414062 36.234375 Z M 102.414062 36.234375 " fill-opacity="1" fill-rule="nonzero"/></g><g clip-path="url(#30672c8caa)"><path fill="#2b2b2b" d="M 92.195312 170.675781 C 133.832031 170.675781 167.601562 136.902344 167.601562 95.269531 C 167.601562 38.714844 92.195312 -44.773438 92.195312 -44.773438 C 92.195312 -44.773438 16.789062 38.714844 16.789062 95.269531 C 16.789062 136.902344 50.558594 170.675781 92.195312 170.675781 Z M 92.195312 68.335938 C 107.0625 68.335938 119.125 80.402344 119.125 95.269531 C 119.125 110.132812 107.0625 122.199219 92.195312 122.199219 C 77.328125 122.199219 65.265625 110.132812 65.265625 95.269531 C 65.265625 80.402344 77.328125 68.335938 92.195312 68.335938 Z M 92.195312 68.335938 " fill-opacity="1" fill-rule="nonzero"/></g><g clip-path="url(#60bb75caa8)"><g clip-path="url(#2682595b01)"><g clip-path="url(#30cc266c34)"><path fill="#ffffff" d="M 159.476562 82.921875 C 159.839844 83.25 159.863281 83.8125 159.535156 84.175781 L 88.195312 162.609375 C 87.867188 162.972656 87.304688 163 86.941406 162.667969 C 86.578125 162.339844 86.550781 161.777344 86.882812 161.414062 L 158.21875 82.980469 C 158.550781 82.617188 159.113281 82.589844 159.476562 82.921875 Z M 159.476562 82.921875 " fill-opacity="1" fill-rule="nonzero"/></g></g></g><g clip-path="url(#5454d4752e)"><g clip-path="url(#b8393838d0)"><path fill="#2b2b2b" d="M 92.195312 172.960938 C 48.292969 172.960938 12.730469 137.152344 12.730469 93.5 C 12.730469 49.84375 48.292969 14.035156 92.195312 14.035156 C 136.09375 14.035156 171.65625 49.597656 171.65625 93.5 C 171.65625 137.398438 135.847656 172.960938 92.195312 172.960938 Z M 92.195312 18.941406 C 50.992188 18.941406 17.636719 52.296875 17.636719 93.5 C 17.636719 134.699219 50.992188 168.054688 92.195312 168.054688 C 133.398438 168.054688 166.75 134.699219 166.75 93.5 C 166.75 52.296875 133.152344 18.941406 92.195312 18.941406 Z M 92.195312 18.941406 " fill-opacity="1" fill-rule="nonzero"/></g></g><g clip-path="url(#55ae3075ae)"><g clip-path="url(#42f92f16fe)"><path fill="#2b2b2b" d="M 92.195312 171.328125 C 48.867188 171.328125 13.765625 135.984375 13.765625 92.898438 C 13.765625 49.8125 48.867188 14.46875 92.195312 14.46875 C 135.523438 14.46875 170.621094 49.570312 170.621094 92.898438 C 170.621094 136.226562 135.28125 171.328125 92.195312 171.328125 Z M 92.195312 19.3125 C 51.527344 19.3125 18.609375 52.230469 18.609375 92.898438 C 18.609375 133.566406 51.527344 166.484375 92.195312 166.484375 C 132.859375 166.484375 165.78125 133.566406 165.78125 92.898438 C 165.78125 52.230469 132.621094 19.3125 92.195312 19.3125 Z M 92.195312 19.3125 " fill-opacity="1" fill-rule="nonzero"/></g></g><g clip-path="url(#195ca19d89)"><g clip-path="url(#8d87355de2)"><path fill="#2b2b2b" d="M 84.710938 134.863281 L 97.144531 148.476562 L 72.097656 171.351562 L 59.667969 157.738281 Z M 84.710938 134.863281 " fill-opacity="1" fill-rule="nonzero"/></g></g><g clip-path="url(#86c71669ee)"><g clip-path="url(#5d698e15c4)"><path fill="#2b2b2b" d="M 60.375 156.53125 L 61.492188 157.722656 L 59.007812 160.046875 L 57.890625 158.855469 Z M 60.375 156.53125 " fill-opacity="1" fill-rule="nonzero"/></g></g><g clip-path="url(#ecefba4f01)"><g clip-path="url(#dda1049eb6)"><path fill="#2b2b2b" d="M 54.695312 155.976562 L 56.308594 155.722656 L 56.84375 159.082031 L 55.230469 159.339844 Z M 54.695312 155.976562 " fill-opacity="1" fill-rule="nonzero"/></g></g><g clip-path="url(#95249fc343)"><g clip-path="url(#8e3e40341e)"><path fill="#2b2b2b" d="M 85.578125 134.863281 L 99.476562 146.976562 L 77.195312 172.550781 L 63.296875 160.441406 Z M 85.578125 134.863281 " fill-opacity="1" fill-rule="nonzero"/></g></g><g clip-path="url(#d840cc6547)"><g clip-path="url(#7a62bc4761)"><path fill="#2b2b2b" d="M 109.460938 138.691406 L 123.3125 150.859375 L 102.875 174.125 L 89.023438 161.957031 Z M 109.460938 138.691406 " fill-opacity="1" fill-rule="nonzero"/></g></g><g clip-path="url(#602f370087)"><g clip-path="url(#8b494ab325)"><path fill="#2b2b2b" d="M 110.476562 144.457031 L 126.269531 154.417969 L 117.742188 167.941406 L 101.949219 157.980469 Z M 110.476562 144.457031 " fill-opacity="1" fill-rule="nonzero"/></g></g><g clip-path="url(#b89bff9e5b)"><g clip-path="url(#e63f76ca25)"><path fill="#2b2b2b" d="M 129.246094 153.386719 L 131.253906 154.65625 L 125.84375 163.234375 L 123.835938 161.96875 Z M 129.246094 153.386719 " fill-opacity="1" fill-rule="nonzero"/></g></g></svg>